<?xml version="1.0" encoding="UTF-8"?>
<svg version="1.1" xmlns="http://www.w3.org/2000/svg" width="512" height="512">
<path d="M0 0 C1.01301178 0.00087616 2.02602356 0.00175232 3.06973267 0.00265503 C19.59909745 0.04968974 35.53550834 0.89743466 51.75 4.375 C52.85714355 4.61105957 53.96428711 4.84711914 55.10498047 5.09033203 C86.31962158 11.99772372 116.22816978 24.47578572 142.75 42.375 C143.65371338 42.98359863 143.65371338 42.98359863 144.57568359 43.60449219 C153.45205992 49.64014091 161.68944545 56.2962654 169.75 63.375 C170.61238281 64.12523437 171.47476562 64.87546875 172.36328125 65.6484375 C182.72936824 74.8076276 192.23515059 84.45968773 200.75 95.375 C201.53890625 96.35855469 202.3278125 97.34210938 203.140625 98.35546875 C227.93485894 129.51764753 244.46721281 166.52788002 252.75 205.375 C252.97445801 206.42155762 253.19891602 207.46811523 253.43017578 208.54638672 C259.82871439 240.09712391 259.49486924 275.92638141 252.75 307.375 C252.51394043 308.48214355 252.27788086 309.58928711 252.03466797 310.72998047 C245.12727628 341.94462158 232.64921428 371.85316978 214.75 398.375 C214.34426758 398.97747559 213.93853516 399.57995117 213.52050781 400.20068359 C207.48485909 409.07705992 200.8287346 417.31444545 193.75 425.375 C192.99976563 426.23738281 192.24953125 427.09976562 191.4765625 427.98828125 C182.3173724 438.35436824 172.66531227 447.86015059 161.75 456.375 C160.76644531 457.16390625 159.78289062 457.9528125 158.76953125 458.765625 C118.18514645 491.05665119 65.17840857 512.3038224 12.95703125 512.578125 C12.05662613 512.58518463 11.15622101 512.59224426 10.22853088 512.59951782 C-27.31566405 512.82709392 -27.31566405 512.82709392 -44.25 509.375 C-45.78914063 509.06900879 -45.78914063 509.06900879 -47.359375 508.75683594 C-83.5095098 501.40045483 -118.52536129 487.52780006 -148.25 465.375 C-148.81332031 464.96040527 -149.37664062 464.54581055 -149.95703125 464.11865234 C-168.21962649 450.63020744 -185.3491635 435.39172663 -199.25 417.375 C-200.03503906 416.3953125 -200.82007813 415.415625 -201.62890625 414.40625 C-226.4370339 383.25299484 -242.96737769 346.22134669 -251.25 307.375 C-251.47445801 306.32844238 -251.69891602 305.28188477 -251.93017578 304.20361328 C-258.32871439 272.65287609 -257.99486924 236.82361859 -251.25 205.375 C-251.01394043 204.26785645 -250.77788086 203.16071289 -250.53466797 202.02001953 C-242.28143267 164.72348427 -226.05553774 129.31688294 -202.25 99.375 C-201.53457031 98.4675 -200.81914062 97.56 -200.08203125 96.625 C-188.23721614 81.86615073 -175.16417221 68.04961841 -160.25 56.375 C-159.26515625 55.58480469 -158.2803125 54.79460938 -157.265625 53.98046875 C-134.87149663 36.16759976 -109.3136372 22.58035598 -82.25 13.375 C-81.47849609 13.10252441 -80.70699219 12.83004883 -79.91210938 12.54931641 C-54.06196321 3.44475899 -27.2854518 -0.05776264 0 0 Z M-132.25 74.375 C-132.84232422 74.80893066 -133.43464844 75.24286133 -134.04492188 75.68994141 C-164.37529758 98.16721817 -188.57046175 128.03477492 -204.25 162.375 C-204.5795166 163.08527344 -204.9090332 163.79554688 -205.24853516 164.52734375 C-216.63559256 189.31638502 -224.2251676 217.12683544 -224.48828125 244.52734375 C-224.49812042 245.37652374 -224.50795959 246.22570374 -224.51809692 247.10061646 C-225.05810435 305.84097837 -207.97449699 362.52157364 -167.24609375 406.2265625 C-165.42614754 408.18540872 -163.71282627 410.19795875 -162 412.25 C-143.5165785 433.30759664 -118.59123026 449.80434814 -93.25 461.375 C-92.53972656 461.7045166 -91.82945312 462.0340332 -91.09765625 462.37353516 C-37.94286849 486.79063999 23.39466914 488.48842905 78.19921875 468.42578125 C105.14081291 458.15398137 130.30912767 443.37825958 151.375 423.59765625 C153.44963814 421.65609523 155.57171445 419.82255747 157.75 418 C178.36908432 399.93216141 194.43727368 375.15133982 205.75 350.375 C206.0795166 349.66472656 206.4090332 348.95445312 206.74853516 348.22265625 C218.13559256 323.43361498 225.7251676 295.62316456 225.98828125 268.22265625 C226.00304001 266.94888626 226.00304001 266.94888626 226.01809692 265.64938354 C226.55810952 206.90845905 209.47411618 150.22300633 168.7421875 106.51953125 C166.94306211 104.58282568 165.25290804 102.59351264 163.5625 100.5625 C145.04324709 79.4522507 120.17506189 62.93945665 94.75 51.375 C94.01845703 51.04016602 93.28691406 50.70533203 92.53320312 50.36035156 C19.11767889 17.14559654 -67.46894924 26.87002195 -132.25 74.375 Z " fill="#FFFFFF" transform="translate(255.25,-0.375)"/>
<path d="M0 0 C6.60740997 3.88893087 12.00412802 9.68279076 17.390625 15.0546875 C18.69117828 16.34525558 18.69117828 16.34525558 20.01800537 17.66189575 C21.83916395 19.47297942 23.6576661 21.28673785 25.47363281 23.10302734 C28.24510534 25.87011309 31.03219833 28.62078952 33.8203125 31.37109375 C35.59472879 33.13964351 37.36819893 34.90914316 39.140625 36.6796875 C39.96983459 37.49452606 40.79904419 38.30936462 41.65338135 39.14889526 C46.63869306 44.1738038 51.41016869 49.20762063 52.3125 56.5390625 C52.209375 57.22742188 52.10625 57.91578125 52 58.625 C51.9175 59.31851563 51.835 60.01203125 51.75 60.7265625 C49.56643516 67.34549343 44.22907867 72.05701061 39.41542053 76.84527588 C38.64782282 77.61669914 37.8802251 78.3881224 37.08936685 79.18292212 C34.52012902 81.76246574 31.94381261 84.33481876 29.36743164 86.90722656 C27.52235307 88.75665283 25.67769278 90.60649646 23.8334198 92.45672607 C19.34610917 96.95676963 14.85335186 101.4513366 10.35849959 105.94384602 C6.70572394 109.59483739 3.05472152 113.24759292 -0.59503365 116.9016037 C-1.11481598 117.42198123 -1.63459832 117.94235875 -2.17013164 118.4785053 C-3.22609403 119.53567945 -4.28205524 120.59285479 -5.33801527 121.6500313 C-15.23444086 131.55732624 -25.13736955 141.45810103 -35.04228044 151.35691163 C-44.10503218 160.41449029 -53.15953515 169.48026401 -62.21019476 178.54992417 C-71.50577713 187.86487149 -80.80689323 197.17425968 -90.1140433 206.47764945 C-95.33837279 211.70006544 -100.56047066 216.9246673 -105.77677727 222.15509796 C-110.67895295 227.07041293 -115.58887709 231.97786992 -120.50416374 236.88007355 C-122.3091428 238.68267885 -124.11155322 240.4878603 -125.91122818 242.29576111 C-128.3634422 244.75837589 -130.82466381 247.21161647 -133.28843689 249.66265869 C-134.00264248 250.38423857 -134.71684808 251.10581845 -135.45269626 251.84926438 C-140.70963563 257.04900831 -144.24517235 259.16054875 -151.83984375 259.36328125 C-157.33482654 258.43917022 -161.19210371 255.18435972 -165.02922058 251.35845947 C-165.4977554 250.89531019 -165.96629022 250.43216091 -166.44902307 249.9549768 C-168.00598438 248.41224149 -169.55209908 246.85908986 -171.09838867 245.30566406 C-172.21693317 244.1928259 -173.33610569 243.08061867 -174.45585632 241.96899414 C-177.48753592 238.95523128 -180.50960906 235.93200723 -183.52948546 232.90642262 C-186.05403452 230.37877973 -188.58316486 227.85574596 -191.11227685 225.33266997 C-197.07966482 219.3793206 -203.039223 213.41821312 -208.99389648 207.45214844 C-215.13179765 201.30276509 -221.28237078 195.16627195 -227.43939799 189.03604341 C-232.73087004 183.76673994 -238.01453518 178.48969801 -243.29199964 173.20636535 C-246.44158935 170.05340785 -249.59399384 166.90340504 -252.7538662 163.76074982 C-255.72515122 160.80495025 -258.68653702 157.83957443 -261.64067268 154.86663818 C-262.72440523 153.77922432 -263.81153569 152.69518436 -264.90233612 151.61486053 C-266.39493888 150.13550038 -267.87458351 148.64424623 -269.35173035 147.1494751 C-270.59690571 145.90398581 -270.59690571 145.90398581 -271.86723614 144.63333511 C-274.77826107 141.03907683 -276.72399785 137.29497677 -277.28515625 132.62890625 C-276.16780557 122.25910783 -267.89050734 115.59042091 -260.83984375 108.57421875 C-259.97235001 107.70481155 -259.10485626 106.83540436 -258.21107483 105.93965149 C-256.38723226 104.11445489 -254.5608895 102.29175354 -252.73217773 100.47143555 C-249.93565132 97.68565842 -247.15000492 94.88932022 -244.36523438 92.09179688 C-242.58657874 90.31446221 -240.80730315 88.53774772 -239.02734375 86.76171875 C-238.19702133 85.92734787 -237.36669891 85.09297699 -236.51121521 84.23332214 C-235.73012894 83.45854019 -234.94904266 82.68375824 -234.14428711 81.88549805 C-233.46289169 81.20569382 -232.78149628 80.52588959 -232.07945251 79.82548523 C-228.63206399 76.79913248 -225.2676294 74.67374213 -220.6875 74.0625 C-219.64142578 73.89427734 -219.64142578 73.89427734 -218.57421875 73.72265625 C-211.73318149 74.45970275 -206.48867631 78.92519016 -201.859375 83.68652344 C-201.30225327 84.24306107 -200.74513153 84.79959869 -200.17112732 85.3730011 C-198.35442477 87.1924631 -196.55226155 89.0256174 -194.75 90.859375 C-193.4843586 92.13248638 -192.21782399 93.40471034 -190.95043945 94.67608643 C-187.63388911 98.0078333 -184.32953333 101.35141943 -181.02764893 104.69769287 C-177.64947167 108.11695209 -174.25979477 111.52476966 -170.87109375 114.93359375 C-164.23614876 121.61130398 -157.61404171 128.30158965 -151 135 C-147.10225722 133.41609071 -144.49042471 130.75426493 -141.59281921 127.80641174 C-141.05939512 127.27187423 -140.52597102 126.73733672 -139.97638255 126.1866011 C-138.19000157 124.39414777 -136.41087941 122.59465873 -134.6315918 120.79516602 C-133.35219535 119.50865705 -132.07232722 118.22261701 -130.79202271 116.93701172 C-128.03537565 114.16726097 -125.28176919 111.39453425 -122.53037071 108.61956978 C-118.1784095 104.23103372 -113.81777187 99.85118982 -109.45552063 95.47288513 C-97.05211996 83.02117427 -84.66046979 70.55780858 -72.27758789 58.08569336 C-65.43886024 51.1978388 -58.59294093 44.31721354 -51.73925525 37.44424194 C-47.40259154 33.09450197 -43.07509388 28.73590594 -38.75417554 24.37052739 C-36.06154722 21.65441017 -33.36056577 18.94672111 -30.65716934 16.24132538 C-29.40683083 14.98669798 -28.1599295 13.72863412 -26.91678429 12.46687889 C-25.21638948 10.7420253 -23.50398593 9.03002776 -21.78813171 7.3205719 C-21.30153586 6.82096044 -20.81494 6.32134897 -20.31359881 5.80659777 C-14.34580509 -0.07532934 -8.11054924 -2.2924188 0 0 Z M-10.61296821 40.49787319 C-11.12803184 41.01789602 -11.64309547 41.53791885 -12.17376709 42.07369995 C-12.99055101 42.89237728 -12.99055101 42.89237728 -13.82383561 43.72759354 C-15.66323697 45.57240848 -17.499052 47.42075292 -19.33496094 49.26904297 C-20.64694124 50.58621218 -21.95916199 51.90314192 -23.27160645 53.21984863 C-26.10543131 56.06364128 -28.93780211 58.90887176 -31.76915741 61.75512314 C-36.24491939 66.25387645 -40.72549868 70.74781015 -45.20709229 75.24075317 C-57.95320286 88.02035695 -70.69526411 100.80397763 -83.42675781 113.59814453 C-90.45222346 120.65811324 -97.48301698 127.7127298 -104.51981187 134.76140702 C-108.24590062 138.49427523 -111.96908264 142.22994739 -115.68566132 145.97228622 C-119.18239173 149.49324979 -122.68597414 153.0072441 -126.19496155 156.51599121 C-127.48233054 157.80578486 -128.76711696 159.09816213 -130.04912567 160.39328384 C-131.79866416 162.15996825 -133.55720395 163.9171785 -135.31829834 165.67233276 C-135.82443908 166.18789415 -136.33057983 166.70345554 -136.85205817 167.23464 C-141.57005784 171.89956049 -145.2436147 173.18720121 -151.83984375 173.36328125 C-157.83590406 172.35490221 -161.89985788 168.52574864 -166.00537109 164.33520508 C-166.57195435 163.76905991 -167.1385376 163.20291473 -167.72229004 162.61961365 C-169.57987921 160.75994646 -171.42663499 158.88990562 -173.2734375 157.01953125 C-174.56457929 155.72279001 -175.85638818 154.42671267 -177.14883423 153.13127136 C-180.53877066 149.72991372 -183.91959854 146.31964184 -187.29858398 142.90740967 C-190.75217484 139.42305932 -194.21433799 135.94724969 -197.67578125 132.47070312 C-204.45891939 125.65544888 -211.23246188 118.83074283 -218 112 C-221.68458983 115.11772677 -225.34675126 118.21672032 -228.74609375 121.6484375 C-229.35517578 122.26074219 -229.96425781 122.87304688 -230.59179688 123.50390625 C-231.50541992 124.43009766 -231.50541992 124.43009766 -232.4375 125.375 C-233.07365234 126.01566406 -233.70980469 126.65632813 -234.36523438 127.31640625 C-235.91250473 128.87531022 -237.45690292 130.43696852 -239 132 C-234.50903918 137.38104651 -229.75790825 142.37957831 -224.79150391 147.32202148 C-223.99083496 148.12283646 -223.19016602 148.92365143 -222.36523438 149.74873352 C-219.73804239 152.37523304 -217.10733417 154.99818016 -214.4765625 157.62109375 C-212.6464591 159.44933061 -210.81657745 161.27778947 -208.98690796 163.10646057 C-204.67528872 167.4146616 -200.36145175 171.72063013 -196.04651296 176.02550608 C-191.13032954 180.93047541 -186.21701744 185.83831671 -181.30393338 190.74639022 C-171.20579313 200.83410455 -161.10408808 210.91824333 -151 221 C-148.20812348 219.72512174 -146.15912581 218.40859485 -143.99341202 216.23950768 C-143.42462114 215.67469889 -142.85583025 215.10989011 -142.26980329 214.5279659 C-141.65501198 213.90734891 -141.04022067 213.28673192 -140.40679932 212.64730835 C-139.74592969 211.98814757 -139.08506006 211.32898679 -138.40416408 210.64985144 C-136.18686016 208.43584659 -133.97678866 206.21476011 -131.76660156 203.99365234 C-130.18025436 202.40674112 -128.59346687 200.82026992 -127.00627136 199.23420715 C-122.69430423 194.92281488 -118.38854021 190.6052749 -114.08384037 186.28662825 C-109.58572788 181.77603065 -105.08196773 177.2710795 -100.57879639 172.76553345 C-93.01984648 165.20106951 -85.4644008 157.63312328 -77.91162109 150.0625 C-70.13238987 142.26490934 -62.35105979 134.46942307 -54.56689453 126.67675781 C-54.08703914 126.19637697 -53.60718374 125.71599613 -53.11278728 125.22105829 C-50.70546877 122.8111297 -48.2981089 120.40124242 -45.89072847 117.99137568 C-25.92073656 98.00065204 -5.95807684 78.00261872 14 58 C13.04124082 56.87614538 12.08173043 55.75293159 11.12190247 54.62998962 C10.58765561 54.00443145 10.05340876 53.37887327 9.5029726 52.73435879 C7.86046239 50.83898025 6.15827316 49.02910209 4.38671875 47.25390625 C3.4750293 46.3402832 3.4750293 46.3402832 2.54492188 45.40820312 C1.93197266 44.79912109 1.31902344 44.19003906 0.6875 43.5625 C0.05521484 42.92634766 -0.57707031 42.29019531 -1.22851562 41.63476562 C-2.13053711 40.73467773 -2.13053711 40.73467773 -3.05078125 39.81640625 C-3.59387939 39.27443604 -4.13697754 38.73246582 -4.6965332 38.17407227 C-7.40714554 35.73254113 -8.45179467 38.33735379 -10.61296821 40.49787319 Z " fill="#FFFFFF" transform="translate(361,145)"/>
</svg>
