<?xml version="1.0" encoding="UTF-8"?>
<svg version="1.1" xmlns="http://www.w3.org/2000/svg" width="512" height="512">
<path d="M0 0 C1.37045026 -0.00542487 2.74089468 -0.01254958 4.11132812 -0.02124023 C7.82214736 -0.03943355 11.53252041 -0.0324229 15.24334717 -0.01972389 C19.13229549 -0.00957537 23.02120638 -0.0189947 26.91015625 -0.02526855 C33.44017372 -0.03253959 39.97001005 -0.02297163 46.5 -0.00390625 C54.04255185 0.01786159 61.58467116 0.01080982 69.12721252 -0.01121187 C75.61063837 -0.02938147 82.09393423 -0.03191662 88.57737732 -0.0214572 C92.44635098 -0.01523078 96.31512153 -0.01436299 100.18408203 -0.02760315 C103.82206402 -0.03918392 107.45949 -0.03109613 111.09741211 -0.00802612 C113.06428265 -0.00024035 115.03120039 -0.01207597 116.99804688 -0.02453613 C127.99790071 0.08082645 127.99790071 0.08082645 132.5625 4.51757812 C136.83819724 9.41766572 137.11300571 13.21880521 136.953125 19.41601562 C136.94746521 20.25097565 136.94180542 21.08593567 136.93597412 21.94619751 C136.91370223 24.59559078 136.86352523 27.24359828 136.8125 29.89257812 C136.79242302 31.69594392 136.77417435 33.49933105 136.7578125 35.30273438 C136.71386786 39.70821081 136.64490601 44.11266006 136.5625 48.51757812 C137.46641448 48.51204737 137.46641448 48.51204737 138.38858986 48.50640488 C153.06149577 48.4180102 167.73438594 48.35184732 182.4074955 48.31032944 C189.5033691 48.28971721 196.59906481 48.26162254 203.69482422 48.21582031 C210.54181988 48.17164495 217.38863054 48.14844428 224.23575974 48.13806915 C226.84886968 48.13067476 229.46196944 48.11623544 232.07500076 48.0946579 C235.7333289 48.06564836 239.39089187 48.06162128 243.04931641 48.06347656 C244.1311319 48.04909546 245.21294739 48.03471436 246.32754517 48.01989746 C252.41567916 48.05333663 255.92480154 48.46232574 260.5625 52.51757812 C265.98322859 58.08750108 265.14059927 64.71188826 265.09375 72.01757812 C265.0975769 73.32662109 265.10140381 74.63566406 265.10534668 75.984375 C265.11122605 78.74824009 265.10273041 81.51158615 265.08398438 84.27539062 C265.06119442 87.80620644 265.07432609 91.33580589 265.09827423 94.86657715 C265.11625956 98.2503399 265.10364232 101.63378089 265.09375 105.01757812 C265.10184692 106.28021484 265.10994385 107.54285156 265.11828613 108.84375 C264.99966741 119.95828685 264.99966741 119.95828685 260.5625 124.51757812 C255.09169608 129.31299785 250.25043702 129.00452827 243.1875 128.76757812 C242.16527344 128.74953125 241.14304687 128.73148438 240.08984375 128.71289062 C237.57975251 128.66597303 235.07162236 128.60034542 232.5625 128.51757812 C232.56401888 129.14743266 232.56553776 129.77728719 232.56710267 130.42622823 C232.65668632 167.78693228 232.72528225 205.1476204 232.76676132 242.50840993 C232.77176392 246.99803844 232.77694124 251.48766673 232.78222656 255.97729492 C232.7832758 256.87106932 232.78432505 257.76484371 232.78540608 258.68570218 C232.80279392 273.14257341 232.83432264 287.59938078 232.87111118 302.05621418 C232.90856579 316.89898585 232.9307454 331.74172415 232.93885398 346.58454114 C232.94433239 355.73753824 232.96161247 364.89035481 232.99416587 374.04329631 C233.01536959 380.32654997 233.02168684 386.60971078 233.01650551 392.89299759 C233.0139528 396.51388322 233.01776397 400.13445419 233.0393219 403.75528336 C233.06258784 407.69200605 233.05440226 411.6283256 233.04351807 415.56510925 C233.05516943 416.6945268 233.0668208 417.82394435 233.07882524 418.98758668 C232.95083671 436.19751581 225.45612982 451.74242973 213.453125 463.85742188 C201.0062082 475.31194936 185.92979778 480.84670394 169.22184753 480.77827454 C168.21807062 480.78210008 167.21429371 480.78592563 166.18009931 480.7898671 C162.836402 480.80013722 159.49287833 480.79621633 156.14916992 480.79223633 C153.74369651 480.79658613 151.33822449 480.80177018 148.93275452 480.807724 C143.08854022 480.81970944 137.24437942 480.82226879 131.40015431 480.81992374 C126.64646216 480.81813655 121.8927839 480.81989879 117.1390934 480.82414818 C116.12201123 480.82504096 116.12201123 480.82504096 115.08438194 480.82595178 C113.70664252 480.82716361 112.3289031 480.82837774 110.95116369 480.82959416 C98.04602739 480.8404572 85.14091726 480.83831319 72.2357795 480.83220931 C60.44948118 480.82704248 48.66326557 480.8382916 36.87698361 480.85730753 C24.75385989 480.87671585 12.63077524 480.88493661 0.50763589 480.88118428 C-6.29014699 480.87927661 -13.08785951 480.88171715 -19.88562965 480.89589882 C-26.28050669 480.90849913 -32.67521857 480.90651203 -39.07009315 480.89348793 C-41.41133175 480.89112735 -43.75258205 480.89383815 -46.09380722 480.90211105 C-67.63405223 480.97271125 -85.2106931 478.13721232 -101.42602539 462.796875 C-112.91178952 451.29335853 -119.63498321 435.79976312 -119.69566262 419.63299322 C-119.68692409 417.91702059 -119.68692409 417.91702059 -119.67800903 416.16638184 C-119.67971788 414.93448073 -119.68142673 413.70257962 -119.68318737 412.43334818 C-119.68590362 409.0308641 -119.6796853 405.62861215 -119.66963124 402.22615623 C-119.66096974 398.55073439 -119.66391881 394.87531932 -119.66543579 391.19989014 C-119.66648294 384.83756321 -119.66022416 378.4752774 -119.64896011 372.11296082 C-119.63268496 362.91419951 -119.62749505 353.71545802 -119.62498413 344.51668388 C-119.62061019 329.59118945 -119.60730925 314.66571692 -119.58837891 299.74023438 C-119.57001232 285.24414174 -119.55585962 270.74805505 -119.54736328 256.25195312 C-119.54683783 255.35795624 -119.54631239 254.46395935 -119.54577102 253.54287165 C-119.54316088 249.05781539 -119.54063348 244.57275908 -119.53814721 240.08770275 C-119.51742408 202.89764575 -119.48220674 165.70761364 -119.4375 128.51757812 C-120.07252441 128.53852539 -120.70754883 128.55947266 -121.36181641 128.58105469 C-124.26188076 128.66462393 -127.16169116 128.71636586 -130.0625 128.76757812 C-131.06152344 128.80109375 -132.06054688 128.83460938 -133.08984375 128.86914062 C-139.250972 128.95074497 -142.74992937 128.62645664 -147.4375 124.51757812 C-152.85822859 118.94765517 -152.01559927 112.32326799 -151.96875 105.01757812 C-151.9725769 103.70853516 -151.97640381 102.39949219 -151.98034668 101.05078125 C-151.98622605 98.28691616 -151.97773041 95.5235701 -151.95898438 92.75976562 C-151.93619442 89.22894981 -151.94932609 85.69935036 -151.97327423 82.1685791 C-151.99125956 78.78481635 -151.97864232 75.40137536 -151.96875 72.01757812 C-151.97684692 70.75494141 -151.98494385 69.49230469 -151.99328613 68.19140625 C-151.87466741 57.0768694 -151.87466741 57.0768694 -147.4375 52.51757812 C-141.94338896 47.71346956 -137.01854992 47.96916944 -129.92431641 48.06347656 C-128.77251892 48.06289246 -127.62072144 48.06230835 -126.434021 48.06170654 C-122.63539258 48.06448829 -118.83755347 48.09558645 -115.0390625 48.12695312 C-112.40205311 48.13441514 -109.76503816 48.14010826 -107.12802124 48.144104 C-100.90195855 48.1565165 -94.67617815 48.18931432 -88.45023954 48.22950196 C-81.35958603 48.27427378 -74.26891876 48.29622024 -67.178159 48.3162837 C-52.59779398 48.35804876 -38.01765094 48.42836694 -23.4375 48.51757812 C-23.4689209 46.83801025 -23.4689209 46.83801025 -23.50097656 45.12451172 C-23.57360426 40.95374436 -23.61938211 36.78303244 -23.65722656 32.61181641 C-23.67729033 30.80963732 -23.70454813 29.00752291 -23.73925781 27.20556641 C-23.78800829 24.60888676 -23.81052082 22.01307084 -23.828125 19.41601562 C-23.84877014 18.61577972 -23.86941528 17.81554382 -23.89068604 16.99105835 C-23.89279096 11.69372491 -23.04365545 8.65034912 -19.4375 4.51757812 C-13.86738301 -0.8965282 -7.3010497 -0.04625287 0 0 Z M8.5625 32.51757812 C8.5625 37.79757813 8.5625 43.07757813 8.5625 48.51757812 C40.2425 48.51757812 71.9225 48.51757812 104.5625 48.51757812 C104.5625 43.23757812 104.5625 37.95757812 104.5625 32.51757812 C72.8825 32.51757812 41.2025 32.51757812 8.5625 32.51757812 Z M-119.4375 80.51757812 C-119.4375 85.79757813 -119.4375 91.07757813 -119.4375 96.51757812 C-3.2775 96.51757812 112.8825 96.51757812 232.5625 96.51757812 C232.5625 91.23757812 232.5625 85.95757812 232.5625 80.51757812 C116.4025 80.51757812 0.2425 80.51757812 -119.4375 80.51757812 Z M-87.4375 128.51757812 C-87.47875 175.81070313 -87.52 223.10382813 -87.5625 271.83007812 C-87.58070801 286.76555908 -87.59891602 301.70104004 -87.61767578 317.08911133 C-87.62436446 330.47176315 -87.62436446 330.47176315 -87.62838745 343.85441589 C-87.63025148 349.81728189 -87.63758346 355.78011034 -87.64865112 361.7429657 C-87.66140373 368.62380729 -87.66716675 375.50461292 -87.6643899 382.38546641 C-87.66318778 385.90347482 -87.66506151 389.42140291 -87.67593026 392.9393965 C-87.68589795 396.713391 -87.6834725 400.48718547 -87.67800903 404.26118469 C-87.68383436 405.34942126 -87.68965969 406.43765783 -87.69566154 407.55887127 C-87.65243576 418.69098696 -86.55872636 428.60465729 -79.4375 437.51757812 C-69.76366353 447.01260061 -59.28582974 448.6753731 -46.16583252 448.65129089 C-45.25289704 448.65355645 -44.33996156 448.65582201 -43.39936137 448.65815622 C-40.35118886 448.6644682 -37.30306113 448.66366865 -34.25488281 448.6628418 C-32.06482893 448.66583505 -29.87477557 448.66923796 -27.6847229 448.67301941 C-21.74243676 448.68184706 -15.80016503 448.68419702 -9.85787296 448.6848352 C-6.14288496 448.68554644 -2.42790061 448.68768219 1.28708649 448.69033241 C13.58561539 448.69910487 25.88413551 448.70375263 38.18266758 448.70300194 C38.84490681 448.70296198 39.50714604 448.70292203 40.18945312 448.70288086 C40.85250691 448.70283998 41.51556069 448.7027991 42.19870701 448.70275698 C52.93821282 448.70235075 63.67768353 448.71191579 74.4171792 448.72601923 C85.46106793 448.74040721 96.50493873 448.74710522 107.54883695 448.74642545 C113.74242045 448.74617084 119.93596423 448.74900182 126.12953949 448.7596035 C131.95719985 448.76930661 137.78478269 448.76934845 143.61244583 448.76208687 C145.74608346 448.76104376 147.87972597 448.76338762 150.01335526 448.76944733 C171.03943659 449.28870942 171.03943659 449.28870942 189.5625 440.51757812 C199.84333677 430.04312861 200.71985058 418.75050533 200.68275452 404.74220276 C200.68361053 403.56300262 200.68446655 402.38380249 200.68534851 401.16886902 C200.68671272 397.9023729 200.68358762 394.63591666 200.67857273 391.36942525 C200.67419797 387.79035327 200.67566788 384.21128275 200.67639065 380.63220882 C200.67692177 373.68839614 200.67230969 366.74459641 200.66588932 359.80078706 C200.6586837 351.76688899 200.65789426 343.73299869 200.65710449 335.69909668 C200.65185614 314.49275511 200.637895 293.28641642 200.625 272.08007812 C200.604375 224.70445312 200.58375 177.32882813 200.5625 128.51757812 C105.5225 128.51757812 10.4825 128.51757812 -87.4375 128.51757812 Z " fill="#FFFFFF" transform="translate(199.4375,15.482421875)"/>
<path d="M0 0 C4.9659901 2.30563826 7.40888444 5.22794144 10 10 C10.56694517 13.21820787 10.54038707 16.37935321 10.50793457 19.640625 C10.51417453 20.60523651 10.5204145 21.56984802 10.52684355 22.56369019 C10.54278556 25.7927095 10.5301642 29.02097522 10.51757812 32.25 C10.52299868 34.56624797 10.53012097 36.88249249 10.53881836 39.19873047 C10.55706229 45.48791955 10.54997957 51.77684633 10.53730202 58.06604004 C10.52718001 64.64559642 10.53656548 71.22513024 10.54284668 77.8046875 C10.55139149 89.56210703 10.53815549 101.31941615 10.51780933 113.07681656 C10.49993868 123.73356185 10.50304291 134.39013285 10.52148438 145.046875 C10.5428985 157.42718625 10.55085424 169.80738638 10.53903532 182.18771362 C10.53279688 188.7394428 10.53197453 195.29105195 10.54518127 201.84277344 C10.55672961 208.00209514 10.54873215 214.16108745 10.52560425 220.32037354 C10.52031179 222.58188327 10.52184005 224.84342069 10.53065491 227.10491943 C10.54157232 230.19011315 10.5278919 233.27424885 10.50793457 236.359375 C10.51685746 237.25606903 10.52578034 238.15276306 10.53497362 239.07662964 C10.46624432 244.54761822 9.62831524 247.6520102 6 252 C2.18069828 255.62833663 -0.88279006 256.31000458 -6 256.5 C-11.11720994 256.31000458 -14.18069828 255.62833663 -18 252 C-22.34641616 246.79147432 -22.57247114 242.84489448 -22.50793457 236.359375 C-22.51417453 235.39476349 -22.5204145 234.43015198 -22.52684355 233.43630981 C-22.54278556 230.2072905 -22.5301642 226.97902478 -22.51757812 223.75 C-22.52299868 221.43375203 -22.53012097 219.11750751 -22.53881836 216.80126953 C-22.55706229 210.51208045 -22.54997957 204.22315367 -22.53730202 197.93395996 C-22.52718001 191.35440358 -22.53656548 184.77486976 -22.54284668 178.1953125 C-22.55139149 166.43789297 -22.53815549 154.68058385 -22.51780933 142.92318344 C-22.49993868 132.26643815 -22.50304291 121.60986715 -22.52148438 110.953125 C-22.5428985 98.57281375 -22.55085424 86.19261362 -22.53903532 73.81228638 C-22.53279688 67.2605572 -22.53197453 60.70894805 -22.54518127 54.15722656 C-22.55672961 47.99790486 -22.54873215 41.83891255 -22.52560425 35.67962646 C-22.52031179 33.41811673 -22.52184005 31.15657931 -22.53065491 28.89508057 C-22.54157232 25.80988685 -22.5278919 22.72575115 -22.50793457 19.640625 C-22.51685746 18.74393097 -22.52578034 17.84723694 -22.53497362 16.92337036 C-22.46624432 11.45238178 -21.62831524 8.3479898 -18 4 C-12.72867143 -1.00776214 -6.89190982 -0.92775709 0 0 Z " fill="#FFFFFF" transform="translate(342,176)"/>
<path d="M0 0 C4.9659901 2.30563826 7.40888444 5.22794144 10 10 C10.56694517 13.21820787 10.54038707 16.37935321 10.50793457 19.640625 C10.51417453 20.60523651 10.5204145 21.56984802 10.52684355 22.56369019 C10.54278556 25.7927095 10.5301642 29.02097522 10.51757812 32.25 C10.52299868 34.56624797 10.53012097 36.88249249 10.53881836 39.19873047 C10.55706229 45.48791955 10.54997957 51.77684633 10.53730202 58.06604004 C10.52718001 64.64559642 10.53656548 71.22513024 10.54284668 77.8046875 C10.55139149 89.56210703 10.53815549 101.31941615 10.51780933 113.07681656 C10.49993868 123.73356185 10.50304291 134.39013285 10.52148438 145.046875 C10.5428985 157.42718625 10.55085424 169.80738638 10.53903532 182.18771362 C10.53279688 188.7394428 10.53197453 195.29105195 10.54518127 201.84277344 C10.55672961 208.00209514 10.54873215 214.16108745 10.52560425 220.32037354 C10.52031179 222.58188327 10.52184005 224.84342069 10.53065491 227.10491943 C10.54157232 230.19011315 10.5278919 233.27424885 10.50793457 236.359375 C10.51685746 237.25606903 10.52578034 238.15276306 10.53497362 239.07662964 C10.46624432 244.54761822 9.62831524 247.6520102 6 252 C2.18069828 255.62833663 -0.88279006 256.31000458 -6 256.5 C-11.11720994 256.31000458 -14.18069828 255.62833663 -18 252 C-22.34641616 246.79147432 -22.57247114 242.84489448 -22.50793457 236.359375 C-22.51417453 235.39476349 -22.5204145 234.43015198 -22.52684355 233.43630981 C-22.54278556 230.2072905 -22.5301642 226.97902478 -22.51757812 223.75 C-22.52299868 221.43375203 -22.53012097 219.11750751 -22.53881836 216.80126953 C-22.55706229 210.51208045 -22.54997957 204.22315367 -22.53730202 197.93395996 C-22.52718001 191.35440358 -22.53656548 184.77486976 -22.54284668 178.1953125 C-22.55139149 166.43789297 -22.53815549 154.68058385 -22.51780933 142.92318344 C-22.49993868 132.26643815 -22.50304291 121.60986715 -22.52148438 110.953125 C-22.5428985 98.57281375 -22.55085424 86.19261362 -22.53903532 73.81228638 C-22.53279688 67.2605572 -22.53197453 60.70894805 -22.54518127 54.15722656 C-22.55672961 47.99790486 -22.54873215 41.83891255 -22.52560425 35.67962646 C-22.52031179 33.41811673 -22.52184005 31.15657931 -22.53065491 28.89508057 C-22.54157232 25.80988685 -22.5278919 22.72575115 -22.50793457 19.640625 C-22.51685746 18.74393097 -22.52578034 17.84723694 -22.53497362 16.92337036 C-22.46624432 11.45238178 -21.62831524 8.3479898 -18 4 C-12.72867143 -1.00776214 -6.89190982 -0.92775709 0 0 Z " fill="#FFFFFF" transform="translate(262,176)"/>
<path d="M0 0 C4.9659901 2.30563826 7.40888444 5.22794144 10 10 C10.56694517 13.21820787 10.54038707 16.37935321 10.50793457 19.640625 C10.51417453 20.60523651 10.5204145 21.56984802 10.52684355 22.56369019 C10.54278556 25.7927095 10.5301642 29.02097522 10.51757812 32.25 C10.52299868 34.56624797 10.53012097 36.88249249 10.53881836 39.19873047 C10.55706229 45.48791955 10.54997957 51.77684633 10.53730202 58.06604004 C10.52718001 64.64559642 10.53656548 71.22513024 10.54284668 77.8046875 C10.55139149 89.56210703 10.53815549 101.31941615 10.51780933 113.07681656 C10.49993868 123.73356185 10.50304291 134.39013285 10.52148438 145.046875 C10.5428985 157.42718625 10.55085424 169.80738638 10.53903532 182.18771362 C10.53279688 188.7394428 10.53197453 195.29105195 10.54518127 201.84277344 C10.55672961 208.00209514 10.54873215 214.16108745 10.52560425 220.32037354 C10.52031179 222.58188327 10.52184005 224.84342069 10.53065491 227.10491943 C10.54157232 230.19011315 10.5278919 233.27424885 10.50793457 236.359375 C10.51685746 237.25606903 10.52578034 238.15276306 10.53497362 239.07662964 C10.46624432 244.54761822 9.62831524 247.6520102 6 252 C2.18069828 255.62833663 -0.88279006 256.31000458 -6 256.5 C-11.11720994 256.31000458 -14.18069828 255.62833663 -18 252 C-22.34641616 246.79147432 -22.57247114 242.84489448 -22.50793457 236.359375 C-22.51417453 235.39476349 -22.5204145 234.43015198 -22.52684355 233.43630981 C-22.54278556 230.2072905 -22.5301642 226.97902478 -22.51757812 223.75 C-22.52299868 221.43375203 -22.53012097 219.11750751 -22.53881836 216.80126953 C-22.55706229 210.51208045 -22.54997957 204.22315367 -22.53730202 197.93395996 C-22.52718001 191.35440358 -22.53656548 184.77486976 -22.54284668 178.1953125 C-22.55139149 166.43789297 -22.53815549 154.68058385 -22.51780933 142.92318344 C-22.49993868 132.26643815 -22.50304291 121.60986715 -22.52148438 110.953125 C-22.5428985 98.57281375 -22.55085424 86.19261362 -22.53903532 73.81228638 C-22.53279688 67.2605572 -22.53197453 60.70894805 -22.54518127 54.15722656 C-22.55672961 47.99790486 -22.54873215 41.83891255 -22.52560425 35.67962646 C-22.52031179 33.41811673 -22.52184005 31.15657931 -22.53065491 28.89508057 C-22.54157232 25.80988685 -22.5278919 22.72575115 -22.50793457 19.640625 C-22.51685746 18.74393097 -22.52578034 17.84723694 -22.53497362 16.92337036 C-22.46624432 11.45238178 -21.62831524 8.3479898 -18 4 C-12.72867143 -1.00776214 -6.89190982 -0.92775709 0 0 Z " fill="#FFFFFF" transform="translate(182,176)"/>
</svg>
