<?xml version="1.0" encoding="UTF-8"?>
<svg version="1.1" xmlns="http://www.w3.org/2000/svg" width="512" height="512">
<path d="M0 0 C0.81730591 -0.00623996 1.63461182 -0.01247993 2.47668457 -0.01890898 C5.21912364 -0.03488145 7.96067912 -0.02221833 10.703125 -0.00964355 C12.66764851 -0.01506279 14.63216796 -0.02218433 16.59667969 -0.03088379 C21.93548516 -0.04914366 27.27398199 -0.04203856 32.61279297 -0.02936745 C38.19499556 -0.01925361 43.77717139 -0.02862863 49.359375 -0.03491211 C58.73442336 -0.04219322 68.10934576 -0.03258861 77.484375 -0.0135498 C88.32944839 0.00821976 99.17422101 0.00116873 110.01928711 -0.02085543 C119.32383808 -0.03899618 128.6282984 -0.04157422 137.93286133 -0.03110075 C143.49305147 -0.02485855 149.05310015 -0.02405019 154.61328125 -0.0372467 C159.84019072 -0.04878526 165.06671169 -0.04081586 170.2935791 -0.01766968 C172.21406407 -0.01237193 174.13458162 -0.01391451 176.05505371 -0.02272034 C178.67256338 -0.03361744 181.2888206 -0.01998354 183.90625 0 C184.67005981 -0.00892289 185.43386963 -0.01784577 186.2208252 -0.02703905 C189.47743007 0.02133854 191.50735108 0.17266121 194.14694548 2.15794039 C196.461564 5.16945724 196.45424002 6.83578506 196.45648956 10.61120605 C196.46692055 11.87072586 196.47735154 13.13024567 196.48809862 14.42793274 C196.47945011 15.82830023 196.47042347 17.22866543 196.46105957 18.62902832 C196.46566694 20.11456413 196.47201876 21.60009538 196.47996855 23.08561707 C196.49670772 27.17354733 196.48839487 31.26110535 196.47602367 35.34903717 C196.46699417 39.75538184 196.48093244 44.16166133 196.49194336 48.56799316 C196.50975568 57.20226919 196.50587655 65.83640634 196.4942928 74.47068787 C196.4852694 81.4862075 196.48402973 88.50168814 196.48838806 95.51721191 C196.48900099 96.51464511 196.48961393 97.5120783 196.49024543 98.53973675 C196.4915243 100.5658277 196.49282115 102.59191864 196.4941358 104.61800957 C196.50554954 123.62904106 196.49241544 142.63999548 196.47093433 161.65101433 C196.45306263 177.97315135 196.45616652 194.2951746 196.47460938 210.61730957 C196.49600206 229.55902481 196.50445083 248.50067244 196.49216032 267.44239807 C196.49088609 269.46115111 196.4896286 271.47990416 196.48838806 273.49865723 C196.48746241 274.98866257 196.48746241 274.98866257 196.48651806 276.50876904 C196.48306035 283.51811021 196.48890255 290.52740861 196.49830627 297.53674316 C196.50950986 306.07558569 196.50652084 314.61428108 196.4851833 323.15310669 C196.47465071 327.51208599 196.47058845 331.87081973 196.48377991 336.22979736 C196.49566422 340.21706405 196.48920737 344.20385666 196.4678697 348.19108009 C196.46338672 349.6365086 196.46570778 351.08197684 196.47537285 352.52737999 C196.48747183 354.48644711 196.47271376 356.44562579 196.45648956 358.40466309 C196.45584015 359.49457047 196.45519074 360.58447784 196.45452166 361.70741272 C195.83237445 365.18237975 194.66433486 366.32324004 191.953125 368.50793457 C189.82339478 369.70735168 189.82339478 369.70735168 187.49072266 370.70837402 C186.60228668 371.09513306 185.71385071 371.48189209 184.79849243 371.88037109 C183.8311618 372.28984985 182.86383118 372.69932861 181.8671875 373.12121582 C180.84192963 373.56412964 179.81667175 374.00704346 178.76034546 374.46337891 C175.37018991 375.92503546 171.97430037 377.37282666 168.578125 378.82043457 C166.2184286 379.83425389 163.85905804 380.8488319 161.5 381.86413574 C155.2707158 384.5416723 149.03608796 387.20649384 142.79943848 389.86682129 C138.94577813 391.51067262 135.09340293 393.15752087 131.24121094 394.80480957 C119.29617955 399.9119864 107.34714921 405.00974317 95.390625 410.08996582 C94.40339447 410.50975708 93.41616394 410.92954834 92.39901733 411.36206055 C91.03167953 411.9424408 91.03167953 411.9424408 89.63671875 412.5345459 C88.84837646 412.86932449 88.06003418 413.20410309 87.24780273 413.54902649 C81.64438659 415.89060193 78.05583496 417.08914504 71.953125 416.50793457 C69.73144531 415.11047363 69.73144531 415.11047363 67.953125 412.50793457 C67.39908814 409.16572646 67.48841726 405.87185596 67.5625 402.49230957 C67.56815979 401.52134338 67.57381958 400.5503772 67.57965088 399.54998779 C67.60202189 396.45213288 67.65222027 393.35543924 67.703125 390.25793457 C67.72318903 388.15638879 67.74143997 386.05482485 67.7578125 383.95324707 C67.8018892 378.80436287 67.87092242 373.65634554 67.953125 368.50793457 C67.00987366 368.51681702 66.06662231 368.52569946 65.0947876 368.53485107 C56.20755039 368.61592148 47.32038816 368.67589244 38.43286514 368.71518326 C33.86361536 368.73606222 29.29466398 368.76438528 24.72558594 368.80969238 C20.31651627 368.85313945 15.9077337 368.87706935 11.49846649 368.88744354 C9.81591013 368.894837 8.13336957 368.90927474 6.45093536 368.9308548 C4.09487399 368.9598746 1.74000027 368.96389132 -0.61621094 368.96203613 C-1.31248596 368.97641724 -2.00876099 368.99079834 -2.72613525 369.00561523 C-5.87195895 368.97879586 -7.69054755 368.77885897 -10.22483063 366.85198212 C-12.53785988 363.87628591 -12.55290327 362.26576425 -12.56585693 358.52215576 C-12.58672615 356.68382927 -12.58672615 356.68382927 -12.60801697 354.80836487 C-12.60330406 353.45333729 -12.59821012 352.098311 -12.59277344 350.74328613 C-12.60150897 349.31413141 -12.61199468 347.88498648 -12.62409973 346.45585632 C-12.65198339 342.57804001 -12.65536391 338.70054244 -12.65437984 334.82264042 C-12.65750694 330.76932176 -12.68312087 326.71614709 -12.70635986 322.66290283 C-12.74693908 314.98839785 -12.76726505 307.31397788 -12.78033376 299.63938212 C-12.79619732 290.9017735 -12.8346102 282.16430968 -12.87492704 273.42678499 C-12.95735225 255.45388062 -13.01142795 237.48098989 -13.046875 219.50793457 C-13.99530273 219.86621338 -14.94373047 220.22449219 -15.92089844 220.59362793 C-19.44609915 221.92464088 -22.97239392 223.25273397 -26.49902344 224.57995605 C-28.0240624 225.15435715 -29.54880511 225.72954544 -31.07324219 226.30554199 C-33.26679978 227.13420342 -35.46141361 227.96001093 -37.65625 228.78527832 C-38.3355658 229.04260239 -39.01488159 229.29992645 -39.71478271 229.56504822 C-50.42424114 233.58172672 -63.48951089 234.66896528 -74.265625 230.12902832 C-80.33839715 226.58942096 -85.69533208 222.03916799 -91.046875 217.50793457 C-94.02175423 221.03643117 -96.32369243 224.5823986 -98.5 228.64855957 C-99.11875 229.80098145 -99.7375 230.95340332 -100.375 232.14074707 C-100.69017578 232.73403809 -101.00535156 233.3273291 -101.33007812 233.93859863 C-102.30299462 235.76945057 -103.28366517 237.59598214 -104.265625 239.42199707 C-107.3911469 244.23715715 -107.3911469 244.23715715 -109.046875 249.50793457 C-107.86770508 249.6635083 -106.68853516 249.81908203 -105.47363281 249.97937012 C-101.04304381 250.56843616 -96.6157045 251.17947998 -92.18896484 251.79675293 C-90.28319061 252.05946856 -88.37661526 252.3164461 -86.46923828 252.56726074 C-70.52356326 254.67021683 -54.93873991 257.16278892 -44.34790039 270.67565918 C-39.14708067 278.65668507 -35.48132768 287.14362533 -31.84765625 295.91394043 C-30.79790108 298.44296259 -29.72829257 300.96290093 -28.65625 303.48254395 C-23.75397288 315.11772433 -19.43908016 326.3215177 -19.546875 339.13293457 C-19.55332031 339.95052246 -19.55976563 340.76811035 -19.56640625 341.61047363 C-19.83520133 350.49132161 -22.43620965 356.32569198 -28.921875 362.44543457 C-37.22080995 368.94959061 -44.57012857 369.64885774 -55.046875 368.50793457 C-62.69840971 366.31888623 -67.35394561 361.75518183 -72.046875 355.50793457 C-73.79055852 352.30955774 -75.1133851 349.00561099 -76.421875 345.60949707 C-77.18696714 343.73037377 -77.95260799 341.85147381 -78.71875 339.97277832 C-79.89284793 337.04000009 -81.05817422 334.1041613 -82.21289062 331.16369629 C-83.34343448 328.30266029 -84.50556195 325.45610071 -85.671875 322.60949707 C-86.17533447 321.28457748 -86.17533447 321.28457748 -86.68896484 319.93289185 C-88.72321944 314.93320881 -88.72321944 314.93320881 -93.13232422 312.06066895 C-94.42412598 311.8782666 -95.71592773 311.69586426 -97.046875 311.50793457 C-98.7545516 311.19004085 -100.46170444 310.86932663 -102.16845703 310.54650879 C-104.12979613 310.21416316 -106.09192124 309.88643266 -108.0546875 309.56262207 C-109.09833466 309.38788361 -110.14198181 309.21314514 -111.21725464 309.03311157 C-113.41387314 308.66644356 -115.6108315 308.30180639 -117.80810547 307.93908691 C-121.16868431 307.38346211 -124.52773029 306.81917899 -127.88671875 306.25402832 C-130.02595517 305.89803942 -132.16527536 305.5425534 -134.3046875 305.18762207 C-135.8079509 304.93454788 -135.8079509 304.93454788 -137.34158325 304.67636108 C-138.27960785 304.52265045 -139.21763245 304.36893982 -140.18408203 304.21057129 C-141.00458038 304.07448456 -141.82507874 303.93839783 -142.67044067 303.79818726 C-147.47567309 303.04330074 -147.47567309 303.04330074 -151.8293457 304.70932007 C-152.37163818 305.27176422 -152.91393066 305.83420837 -153.47265625 306.41369629 C-154.40887817 307.36500931 -154.40887817 307.36500931 -155.36401367 308.33554077 C-156.02248291 309.0292276 -156.68095215 309.72291443 -157.359375 310.43762207 C-158.05071533 311.14315216 -158.74205566 311.84868225 -159.4543457 312.57559204 C-161.66406935 314.83317557 -163.85652261 317.10656351 -166.046875 319.38293457 C-168.23885646 321.65041868 -170.43439525 323.91403351 -172.6394043 326.16885376 C-174.01086418 327.5722587 -175.37465459 328.98320977 -176.72973633 330.4024353 C-177.35388428 331.0429483 -177.97803223 331.6834613 -178.62109375 332.34338379 C-179.16338623 332.90741913 -179.70567871 333.47145447 -180.2644043 334.05258179 C-184.08572377 337.17261508 -188.25123828 337.82556002 -193.04516602 338.37756348 C-194.83102867 338.58755478 -194.83102867 338.58755478 -196.65296936 338.80178833 C-197.93924728 338.94458221 -199.22552521 339.0873761 -200.55078125 339.23449707 C-201.91147304 339.38840547 -203.27214465 339.54249232 -204.63279724 339.69674683 C-207.49789278 340.01952558 -210.36358544 340.33627454 -213.22973633 340.64953613 C-216.10959241 340.96509185 -218.98797091 341.29078406 -221.86547852 341.6270752 C-236.72948932 343.36199912 -251.53561203 344.82665078 -266.51171875 345.03137207 C-267.63429581 345.0605069 -268.75687286 345.08964172 -269.91346741 345.11965942 C-278.54277571 345.10676877 -285.0017259 342.86583032 -291.66796875 337.33215332 C-298.76270867 328.98629798 -300.67372344 322.96291319 -300.390625 311.91027832 C-299.54205841 303.51139767 -295.24230916 297.10667733 -289.046875 291.50793457 C-280.10311228 285.12223958 -267.7428433 285.15444046 -257.1875 284.25402832 C-255.99888367 284.14824966 -254.81026733 284.04247101 -253.58563232 283.93348694 C-249.82311516 283.59937722 -246.06005146 283.27202711 -242.296875 282.94543457 C-238.51952628 282.6141516 -234.74231505 282.28140922 -230.965271 281.94667053 C-228.62485302 281.73960662 -226.28424306 281.53469801 -223.94342041 281.33226013 C-220.97635787 281.07159504 -218.01150271 280.79481111 -215.046875 280.50793457 C-214.31419907 280.4441713 -213.58152313 280.38040802 -212.8266449 280.31471252 C-208.97172394 279.90077202 -208.12768192 279.58874149 -205.23828125 276.69934082 C-204.34150418 275.50480574 -203.46594187 274.29412423 -202.609375 273.07043457 C-201.66398202 271.78047588 -200.71735968 270.49141731 -199.76953125 269.20324707 C-199.31078613 268.56935059 -198.85204102 267.9354541 -198.37939453 267.28234863 C-196.57369233 264.8778335 -194.55262614 262.68389717 -192.546875 260.44543457 C-188.83540965 255.85277624 -188.05220131 251.75205535 -186.984375 246.03918457 C-185.08572167 238.88759037 -180.9203432 232.74944978 -177.046875 226.50793457 C-176.57507813 225.7464209 -176.10328125 224.98490723 -175.6171875 224.20031738 C-172.62809223 219.39839119 -169.5959277 214.62476762 -166.54882812 209.85949707 C-164.13785944 206.08471646 -161.74452753 202.29906716 -159.359375 198.50793457 C-158.9372876 197.84342285 -158.5152002 197.17891113 -158.08032227 196.4942627 C-156.41663314 193.84791054 -155.0396745 191.48633306 -154.046875 188.50793457 C-156.026875 188.17793457 -158.006875 187.84793457 -160.046875 187.50793457 C-164.38968254 193.33741555 -168.5812259 199.22715386 -172.5546875 205.31262207 C-172.93308777 205.89046448 -173.31148804 206.46830688 -173.70135498 207.06365967 C-175.25456287 209.43844381 -176.80536401 211.81460572 -178.34326172 214.19934082 C-179.48851231 215.97201453 -180.64560188 217.73647346 -181.8046875 219.50012207 C-182.4764502 220.53507813 -183.14821289 221.57003418 -183.84033203 222.63635254 C-187.34541236 227.19784345 -191.39102159 230.92875851 -197.046875 232.50793457 C-205.36456953 233.49655198 -212.93562288 233.50365396 -219.94921875 228.44543457 C-225.557249 223.26557795 -228.28334877 218.39045192 -228.64208984 210.63244629 C-228.81733089 198.50059451 -224.37060432 189.27152778 -217.734375 179.32043457 C-216.48555703 177.40860235 -215.2382157 175.49580493 -213.9921875 173.58215332 C-213.34668945 172.59521484 -212.70119141 171.60827637 -212.03613281 170.59143066 C-209.99518041 167.42780414 -208.0097711 164.23527209 -206.0390625 161.02746582 C-205.38204346 159.95971924 -204.72502441 158.89197266 -204.0480957 157.79187012 C-202.78904999 155.74039141 -201.5347015 153.68601976 -200.28588867 151.6282959 C-193.79778068 141.11370486 -187.06072055 132.60981805 -175.046875 128.50793457 C-160.42744447 126.85933049 -146.1909262 130.48375266 -131.984375 133.50793457 C-129.65331268 133.99124117 -127.32193372 134.47302318 -124.99023438 134.95324707 C-119.33868191 136.12061482 -113.69131044 137.30665185 -108.046875 138.50793457 C-108.38678467 137.97539062 -108.72669434 137.44284668 -109.0769043 136.89416504 C-109.52461182 136.18663086 -109.97231934 135.47909668 -110.43359375 134.75012207 C-110.87662842 134.05257812 -111.31966309 133.35503418 -111.77612305 132.63635254 C-117.49018318 123.06571349 -117.58319741 110.90311364 -115.35546875 100.17980957 C-111.77364904 89.44933714 -104.07192474 80.56293155 -94.109375 75.19543457 C-82.92765725 70.11679863 -71.47836993 70.36170954 -60.046875 74.50793457 C-50.05352825 78.69234085 -42.40038886 86.15422083 -37.9765625 96.03918457 C-33.48212294 107.97399887 -34.29287648 118.71920305 -39.046875 130.50793457 C-44.09519978 140.51251742 -52.43680913 147.91714746 -63.046875 151.50793457 C-67.09436632 152.63215032 -71.11962548 152.84533544 -75.296875 153.07043457 C-76.41449219 153.13520996 -76.41449219 153.13520996 -77.5546875 153.20129395 C-79.385224 153.30690182 -81.21602676 153.40787658 -83.046875 153.50793457 C-78.2675192 160.87590543 -72.90807488 167.03217933 -66.609375 173.13293457 C-65.78244141 173.94633301 -64.95550781 174.75973145 -64.10351562 175.59777832 C-62.09142213 177.57498002 -60.07263162 179.54475082 -58.046875 181.50793457 C-48.2255973 178.96032411 -38.62318008 175.8243664 -28.99023438 172.64855957 C-27.79591797 172.2592627 -26.60160156 171.86996582 -25.37109375 171.46887207 C-24.29947998 171.11615234 -23.22786621 170.76343262 -22.1237793 170.40002441 C-19.102935 169.5241881 -16.14984368 168.99889857 -13.046875 168.50793457 C-13.04467516 167.24564718 -13.04467516 167.24564718 -13.04243088 165.95785904 C-13.00540011 145.49392211 -12.94643507 125.03015129 -12.86297226 104.56634903 C-12.82314093 94.67024712 -12.79076927 84.77422521 -12.77587891 74.87805176 C-12.76288357 66.25384069 -12.73597328 57.62980532 -12.69226193 49.0056932 C-12.66959931 44.43807222 -12.65396718 39.87066834 -12.65499115 35.30298615 C-12.65573494 31.00518973 -12.63789798 26.70787409 -12.60570717 22.41020203 C-12.59717681 20.83159832 -12.59547944 19.25294088 -12.60107231 17.67432404 C-12.60768713 15.52065954 -12.58985564 13.3685361 -12.56585693 11.21502686 C-12.56216976 10.00932163 -12.55848259 8.80361641 -12.55468369 7.56137466 C-12.046875 4.50793457 -12.046875 4.50793457 -10.51736832 2.12048721 C-7.07916408 -0.1237145 -3.97307145 -0.04641374 0 0 Z M3.953125 16.50793457 C3.953125 66.99793457 3.953125 117.48793457 3.953125 169.50793457 C6.593125 170.82793457 9.233125 172.14793457 11.953125 173.50793457 C17.2023607 178.87128409 19.23867352 183.35123612 19.328125 190.82043457 C19.20552161 196.53762425 18.76961945 201.07717584 14.953125 205.50793457 C11.52386769 208.28545026 7.89592735 210.53653339 3.953125 212.50793457 C3.953125 258.70793457 3.953125 304.90793457 3.953125 352.50793457 C25.073125 352.50793457 46.193125 352.50793457 67.953125 352.50793457 C67.96770752 343.43575439 67.98229004 334.36357422 67.99731445 325.01647949 C68.04603731 296.01310305 68.10943668 267.0097754 68.18211128 238.00644947 C68.1933799 233.50393372 68.20451828 229.00141765 68.21557617 224.49890137 C68.21777986 223.60250387 68.21998354 222.70610637 68.222254 221.78254531 C68.25765908 207.2542961 68.28250506 192.72604695 68.30347202 178.19777056 C68.32520854 163.29850795 68.35823841 148.39930148 68.40182656 133.50008661 C68.42838041 124.30106379 68.44604824 115.10211098 68.45247104 105.90305171 C68.45771354 99.60115644 68.47389199 93.29934939 68.49879066 86.99750134 C68.5128449 83.35768269 68.52196195 79.71802209 68.51813316 76.07817459 C68.51411392 72.13794995 68.53306406 68.1980318 68.55439758 64.25785828 C68.54955001 63.09931231 68.54470243 61.94076635 68.53970796 60.74711293 C68.5491645 59.69612111 68.55862104 58.64512929 68.56836414 57.56228924 C68.57026275 56.65209961 68.57216135 55.74190997 68.57411748 54.80413884 C69.03006069 52.04182226 69.77264505 51.20521048 71.953125 49.50793457 C74.18466187 48.33456421 74.18466187 48.33456421 76.82568359 47.19885254 C77.81877533 46.76765106 78.81186707 46.33644958 79.83505249 45.8921814 C80.91300079 45.43280182 81.9909491 44.97342224 83.1015625 44.50012207 C84.22390289 44.01520294 85.34624329 43.53028381 86.50259399 43.03067017 C90.10825205 41.47470555 93.71809098 39.92871529 97.328125 38.38293457 C99.69038446 37.36535584 102.05236669 36.34713329 104.4140625 35.32824707 C111.25641822 32.37878977 118.10420114 29.44210088 124.953125 26.50793457 C127.09019684 25.59165771 129.22724202 24.6753187 131.36425781 23.75891113 C136.22671179 21.67407952 141.08972677 19.59056244 145.953125 17.50793457 C145.953125 17.17793457 145.953125 16.84793457 145.953125 16.50793457 C99.093125 16.50793457 52.233125 16.50793457 3.953125 16.50793457 Z M173.49560547 23.3494873 C172.09581955 23.95875816 172.09581955 23.95875816 170.66775513 24.58033752 C169.64559906 25.02953049 168.62344299 25.47872345 167.5703125 25.94152832 C166.50376434 26.40655258 165.43721619 26.87157684 164.33834839 27.35069275 C162.03459466 28.35542421 159.73153087 29.36173879 157.42907715 30.3694458 C151.40122996 33.00758679 145.3687189 35.63500673 139.3359375 38.26184082 C138.72937317 38.5260936 138.12280884 38.79034637 137.49786377 39.06260681 C123.89878887 44.98580812 110.2485438 50.78574027 96.57763672 56.54089355 C95.3956218 57.04000999 95.3956218 57.04000999 94.18972778 57.54920959 C92.73122491 58.16500369 91.27186499 58.77877343 89.81149292 59.39012146 C86.65092422 60.57619833 86.65092422 60.57619833 83.953125 62.50793457 C83.85570009 64.28027691 83.82941062 66.05654891 83.83007717 67.83156681 C83.82808612 68.99352859 83.82609507 70.15549036 83.82404369 71.3526631 C83.82695653 72.64543604 83.82986937 73.93820898 83.83287048 75.27015686 C83.8324349 76.64457864 83.83156024 78.01900034 83.83028132 79.39342159 C83.82803378 83.18789683 83.83206115 86.9823441 83.83705938 90.77681577 C83.84136 94.86204428 83.83991773 98.94727109 83.8391571 103.03250122 C83.83863162 110.11630696 83.84178095 117.20010351 83.84739494 124.28390694 C83.85550667 134.52601839 83.85812483 144.76812539 83.85938293 155.01023971 C83.86157397 171.62560341 83.86823545 188.24096221 83.87768555 204.85632324 C83.88685833 221.00085424 83.89393982 237.14538391 83.89819336 253.28991699 C83.89845608 254.2843238 83.89871881 255.2787306 83.89898949 256.30327094 C83.90029449 261.29169603 83.9015582 266.28012112 83.90280139 271.26854622 C83.91317561 312.68167908 83.93079533 354.09480655 83.953125 395.50793457 C85.39362576 395.03271016 86.83370502 394.55620797 88.27360535 394.07916737 C89.47658909 393.681345 89.47658909 393.681345 90.70387554 393.27548581 C93.29785972 392.39029463 95.80566118 391.37686453 98.31640625 390.27819824 C99.74886688 389.65492393 99.74886688 389.65492393 101.21026611 389.01905823 C102.21853455 388.57581711 103.22680298 388.13257599 104.265625 387.67590332 C105.34140808 387.20692123 106.41719116 386.73793915 107.52557373 386.25474548 C111.00288355 384.73829423 114.47797816 383.21683508 117.953125 381.69543457 C122.72821407 379.61121525 127.50457604 377.52992491 132.28125 375.44934082 C133.45689514 374.93695862 134.63254028 374.42457642 135.84381104 373.89666748 C147.13364154 368.98193193 158.46415614 364.16633707 169.8203125 359.40710449 C171.03460938 358.89639404 172.24890625 358.38568359 173.5 357.85949707 C174.53995117 357.42459961 175.57990234 356.98970215 176.65136719 356.54162598 C178.87077672 355.7087374 178.87077672 355.7087374 179.953125 354.50793457 C180.05054991 352.73559223 180.07683938 350.95932023 180.07617283 349.18430233 C180.07816388 348.02234055 180.08015493 346.86037878 180.08220631 345.66320604 C180.07929347 344.3704331 180.07638063 343.07766016 180.07337952 341.74571228 C180.0738151 340.3712905 180.07468976 338.9968688 180.07596868 337.62244755 C180.07821622 333.82797232 180.07418885 330.03352504 180.06919062 326.23905337 C180.06489 322.15382486 180.06633227 318.06859805 180.0670929 313.98336792 C180.06761838 306.89956219 180.06446905 299.81576563 180.05885506 292.7319622 C180.05074333 282.48985075 180.04812517 272.24774375 180.04686707 262.00562943 C180.04467603 245.39026573 180.03801455 228.77490693 180.02856445 212.1595459 C180.01939167 196.0150149 180.01231018 179.87048523 180.00805664 163.72595215 C180.00766256 162.23434194 180.00766256 162.23434194 180.00726051 160.7125982 C180.00595551 155.72417311 180.0046918 150.73574802 180.00344861 145.74732292 C179.99307439 104.33419006 179.97545467 62.9210626 179.953125 21.50793457 C177.40398641 21.50793457 175.83618547 22.32513891 173.49560547 23.3494873 Z M-94.734375 97.58215332 C-99.14084287 104.354594 -99.77705315 110.51654038 -99.046875 118.50793457 C-96.99979541 125.31669931 -92.55509459 130.21319539 -86.484375 133.82043457 C-80.57740347 136.55617753 -73.97907723 136.57610496 -67.74609375 134.88293457 C-61.60542407 132.21204135 -56.80344191 127.09133108 -53.875 121.11730957 C-51.93327886 114.99905616 -51.9870559 107.92100075 -54.734375 102.07043457 C-58.03939577 96.48887852 -62.77154721 91.54579875 -69.046875 89.50793457 C-79.16183358 88.06821419 -88.02188826 89.33138837 -94.734375 97.58215332 Z M-180.44482422 152.28283691 C-181.88589489 154.37319839 -183.19186945 156.51017698 -184.484375 158.69543457 C-184.97808594 159.50335449 -185.47179687 160.31127441 -185.98046875 161.14367676 C-187.07317428 162.93338379 -188.15995812 164.72671586 -189.24169922 166.52307129 C-191.21930009 169.79303995 -193.22547011 173.04474607 -195.23828125 176.29309082 C-199.19502006 182.68562113 -203.1404285 189.0844929 -207.046875 195.50793457 C-207.489104 196.21208496 -207.93133301 196.91623535 -208.38696289 197.64172363 C-210.49742766 201.09818865 -211.58038902 203.68693992 -211.484375 207.75793457 C-211.48308594 208.58809082 -211.48179687 209.41824707 -211.48046875 210.27355957 C-210.9547974 212.98242455 -210.24863852 213.87965364 -208.046875 215.50793457 C-204.6757587 216.34239377 -204.6757587 216.34239377 -201.046875 215.50793457 C-196.08929285 211.17747404 -192.59301357 205.03351925 -189.0625 199.54699707 C-188.52083191 198.71582367 -187.97916382 197.88465027 -187.42108154 197.02828979 C-185.70822578 194.39957966 -184.00181271 191.76678601 -182.296875 189.13293457 C-180.03660801 185.64243564 -177.77016972 182.15606105 -175.5 178.67199707 C-174.98230042 177.86791412 -174.46460083 177.06383118 -173.93121338 176.23538208 C-173.209711 175.12820328 -173.209711 175.12820328 -172.47363281 173.99865723 C-171.84125702 173.02105942 -171.84125702 173.02105942 -171.19610596 172.02371216 C-170.046875 170.50793457 -170.046875 170.50793457 -168.046875 169.50793457 C-160.33949287 168.91088384 -154.37425891 170.69091973 -147.171875 173.32043457 C-146.140625 173.67686035 -145.109375 174.03328613 -144.046875 174.4005127 C-135.34269157 177.49697482 -135.34269157 177.49697482 -133.046875 180.50793457 C-132.0420681 187.66525145 -134.34936239 191.71876874 -138.171875 197.63293457 C-138.97516235 198.9223999 -138.97516235 198.9223999 -139.79467773 200.23791504 C-141.52672201 203.0068888 -143.28456759 205.75813974 -145.046875 208.50793457 C-146.22335249 210.36165955 -147.39913424 212.21582626 -148.57421875 214.07043457 C-150.91732877 217.76124532 -153.26903375 221.44641421 -155.625 225.12902832 C-158.91754802 230.28878293 -162.15730175 235.47909388 -165.359375 240.69543457 C-165.82158447 241.44389648 -166.28379395 242.1923584 -166.76000977 242.96350098 C-171.38990852 250.54260003 -171.86546479 256.7104466 -171.046875 265.50793457 C-168.97353581 272.49034593 -165.12782047 277.57660742 -159.046875 281.50793457 C-151.07311906 285.58717276 -142.55523344 286.87697849 -133.80859375 288.23449707 C-132.35493795 288.46943884 -130.90147482 288.70557552 -129.44819641 288.94284058 C-125.65250946 289.56006219 -121.85491921 290.16454175 -118.05657959 290.76519775 C-111.96092437 291.73048602 -105.86784306 292.71158721 -99.77588844 293.6999321 C-97.65795948 294.04105924 -95.53890433 294.37434821 -93.41960144 294.70681763 C-92.13088638 294.91398407 -90.84217133 295.12115051 -89.5144043 295.33459473 C-87.81757759 295.60295639 -87.81757759 295.60295639 -86.08647156 295.8767395 C-83.18037035 296.48021326 -80.70985275 297.20154539 -78.046875 298.50793457 C-76.52050781 300.88024902 -76.52050781 300.88024902 -75.25 303.87121582 C-74.77062988 304.97642578 -74.29125977 306.08163574 -73.79736328 307.22033691 C-73.30220215 308.40836914 -72.80704102 309.59640137 -72.296875 310.82043457 C-71.77464355 312.0290918 -71.25241211 313.23774902 -70.71435547 314.48303223 C-68.23417905 320.22531261 -65.83812909 326.00100859 -63.4765625 331.79309082 C-63.08436523 332.74208252 -62.69216797 333.69107422 -62.28808594 334.66882324 C-61.56407455 336.42928575 -60.85539398 338.19616187 -60.16503906 339.97009277 C-57.98036928 345.30239754 -55.90741586 348.320383 -51.046875 351.50793457 C-47.98588066 352.39911014 -46.33820651 351.97812479 -43.046875 351.50793457 C-40.2368404 349.71429546 -38.53747032 348.48912522 -37.046875 345.50793457 C-35.5011476 330.07274235 -41.69541666 316.71290196 -47.75854492 302.8885498 C-48.6211337 300.91858019 -49.47022454 298.94314837 -50.31835938 296.96691895 C-50.87421713 295.68728172 -51.43082962 294.40797201 -51.98828125 293.12902832 C-52.48013916 291.99908447 -52.97199707 290.86914062 -53.47875977 289.70495605 C-56.79404137 282.94586954 -60.98998939 276.54209385 -68.20780945 273.63868713 C-74.61375636 271.74802023 -80.94956647 270.61929793 -87.56640625 269.75402832 C-88.62800461 269.6076442 -89.68960297 269.46126007 -90.78337097 269.31044006 C-94.14106501 268.8479273 -97.50000748 268.39561927 -100.859375 267.94543457 C-104.23650588 267.49112175 -107.61321603 267.03439381 -110.98893738 266.56971741 C-113.08047189 266.28190308 -115.17283237 266.00001161 -117.2660675 265.72483826 C-118.21442978 265.59452713 -119.16279205 265.464216 -120.13989258 265.32995605 C-120.96910721 265.21909164 -121.79832184 265.10822723 -122.65266418 264.9940033 C-125.33754846 264.44892252 -127.59587093 263.73923421 -130.046875 262.50793457 C-131.89391691 258.55343231 -132.34999373 256.46223992 -131.01953125 252.27355957 C-130.40642756 251.0891586 -129.7673942 249.91798307 -129.109375 248.75793457 C-128.75238525 248.0880249 -128.39539551 247.41811523 -128.02758789 246.72790527 C-126.72568292 244.30680479 -125.38723281 241.90795401 -124.046875 239.50793457 C-122.9290729 237.47572042 -121.81192677 235.44314537 -120.6953125 233.41027832 C-117.18338605 227.04241169 -113.63462117 220.69550056 -110.07965088 214.35162354 C-107.27227089 209.33995004 -104.47137126 204.32467483 -101.67532349 199.30667114 C-100.68799686 197.53683389 -99.69749273 195.76880189 -98.70678711 194.00085449 C-98.11003174 192.93069092 -97.51327637 191.86052734 -96.8984375 190.75793457 C-96.37072754 189.81434082 -95.84301758 188.87074707 -95.29931641 187.89855957 C-92.36589605 182.29932914 -92.35549912 176.69889134 -93.046875 170.50793457 C-95.17729312 164.88803849 -99.13033092 160.88565716 -104.046875 157.50793457 C-107.43779437 156.20821627 -107.43779437 156.20821627 -111.15625 155.46105957 C-111.84281677 155.30397522 -112.52938354 155.14689087 -113.23675537 154.98504639 C-115.50299632 154.47336344 -117.77401123 153.98928307 -120.046875 153.50793457 C-121.66476909 153.15467325 -123.28260648 152.80115218 -124.90039062 152.4473877 C-129.15525431 151.52769229 -133.41749542 150.64932008 -137.68457031 149.78820801 C-140.31032149 149.25520506 -142.93233627 148.70582638 -145.5546875 148.15637207 C-164.69112646 143.32708134 -164.69112646 143.32708134 -180.44482422 152.28283691 Z M-38.41943359 194.06359863 C-40.97364021 194.96553342 -43.53327391 195.85054783 -46.09375 196.73449707 C-46.85959412 197.01258209 -47.62543823 197.29066711 -48.41448975 197.57717896 C-53.63268337 199.371418 -58.5238565 200.18843155 -64.046875 199.50793457 C-66.5 198.11730957 -66.5 198.11730957 -68.296875 196.25793457 C-68.94140625 195.62242676 -69.5859375 194.98691895 -70.25 194.33215332 C-70.84296875 193.73016113 -71.4359375 193.12816895 -72.046875 192.50793457 C-73.70339312 191.1620136 -75.36493568 189.82194967 -77.046875 188.50793457 C-78.10786828 190.24628514 -79.14513983 191.99913261 -80.171875 193.75793457 C-80.75195312 194.73246582 -81.33203125 195.70699707 -81.9296875 196.71105957 C-83.27825875 199.33897957 -83.27825875 199.33897957 -82.62109375 201.54699707 C-80.35104102 204.37470544 -77.61806129 206.4757708 -74.734375 208.63293457 C-74.16525391 209.07508301 -73.59613281 209.51723145 -73.00976562 209.97277832 C-65.80837354 215.44616702 -59.93524432 216.36712247 -51.046875 215.50793457 C-46.84552227 214.51395288 -42.88602921 213.07425088 -38.859375 211.52746582 C-37.75384277 211.11759933 -36.64831055 210.70773285 -35.50927734 210.28544617 C-33.19321067 209.42143769 -30.88072029 208.54778616 -28.57177734 207.66491699 C-25.03774167 206.3169509 -21.4911427 205.00727359 -17.94140625 203.70129395 C-15.68405644 202.85391731 -13.42751516 202.00438297 -11.171875 201.15246582 C-10.11460205 200.76267044 -9.0573291 200.37287506 -7.96801758 199.9712677 C-0.8875857 197.24251288 -0.8875857 197.24251288 3.953125 191.50793457 C3.31390535 189.03166358 3.31390535 189.03166358 1.953125 186.50793457 C-9.35598991 180.46767053 -27.40320412 190.15428317 -38.41943359 194.06359863 Z M-185.046875 278.50793457 C-186.91079501 280.55528798 -188.67668214 282.6131844 -190.421875 284.75793457 C-199.76954659 296.13010188 -199.76954659 296.13010188 -205.89065552 296.83578491 C-207.6253157 296.97876511 -207.6253157 296.97876511 -209.39501953 297.12463379 C-211.36319138 297.29018265 -211.36319138 297.29018265 -213.37112427 297.45907593 C-214.07269779 297.51651852 -214.77427132 297.57396111 -215.49710464 297.63314438 C-217.70134242 297.81440279 -219.90501422 298.00146758 -222.10861206 298.19033813 C-228.37407672 298.72689544 -234.63997445 299.25777721 -240.90722656 299.77307129 C-244.74353495 300.08891387 -248.57878889 300.41565082 -252.41360092 300.74914932 C-253.86834722 300.87357377 -255.3234431 300.99398438 -256.77887344 301.11013412 C-270.13648413 301.76168275 -270.13648413 301.76168275 -281.546875 307.82043457 C-283.2897074 310.94300928 -283.97514443 312.92140598 -284.046875 316.50793457 C-282.45337519 321.64254507 -280.67966805 324.70671087 -276.046875 327.50793457 C-270.35233178 328.98097099 -264.77739757 328.34356338 -258.984375 327.88293457 C-257.28909668 327.75241699 -257.28909668 327.75241699 -255.55957031 327.6192627 C-243.45078405 326.62937494 -231.37364125 325.32585699 -219.296875 324.00793457 C-218.29776093 323.90051941 -217.29864685 323.79310425 -216.26925659 323.68243408 C-213.38702733 323.37073777 -210.505926 323.05018217 -207.625 322.72668457 C-206.76240067 322.63396271 -205.89980133 322.54124084 -205.01106262 322.44570923 C-196.96987664 321.52175739 -191.0810117 320.34806309 -185.33203125 314.28137207 C-184.83142685 313.77369293 -184.33082245 313.26601379 -183.81504822 312.74295044 C-182.23425798 311.13439121 -180.67184608 309.50927343 -179.109375 307.88293457 C-178.03437539 306.7828295 -176.95821376 305.68385866 -175.88085938 304.58605957 C-173.255914 301.90627784 -170.64729751 299.21151066 -168.046875 296.50793457 C-169.21730347 295.34209839 -169.21730347 295.34209839 -170.41137695 294.15270996 C-172.7543923 291.80144685 -175.01544428 289.41329756 -177.234375 286.94543457 C-177.90855469 286.20164551 -178.58273438 285.45785645 -179.27734375 284.69152832 C-180.90086062 282.68811566 -182.00849812 280.85626382 -183.046875 278.50793457 C-183.706875 278.50793457 -184.366875 278.50793457 -185.046875 278.50793457 Z " fill="#FFFFFF" transform="translate(308.046875,47.4920654296875)"/>
<path d="M0 0 C34.32 0 68.64 0 104 0 C104 5.28 104 10.56 104 16 C69.68 16 35.36 16 0 16 C0 10.72 0 5.44 0 0 Z " fill="#FFFFFF" transform="translate(80,120)"/>
<path d="M0 0 C26.4 0 52.8 0 80 0 C80 5.28 80 10.56 80 16 C53.6 16 27.2 16 0 16 C0 10.72 0 5.44 0 0 Z " fill="#FFFFFF" transform="translate(8,160)"/>
<path d="M0 0 C23.76 0 47.52 0 72 0 C72 5.28 72 10.56 72 16 C48.24 16 24.48 16 0 16 C0 10.72 0 5.44 0 0 Z " fill="#FFFFFF" transform="translate(8,288)"/>
<path d="M0 0 C13.2 0 26.4 0 40 0 C40 5.28 40 10.56 40 16 C26.8 16 13.6 16 0 16 C0 10.72 0 5.44 0 0 Z " fill="#FFFFFF" transform="translate(24,232)"/>
</svg>
