<svg width="800" height="1080" viewBox="0 0 800 1080" fill="none" xmlns="http://www.w3.org/2000/svg">
<g filter="url(#filter0_b_1476_1597)">
<path d="M511.397 6.73283C529.097 -2.24428 550.903 -2.24428 568.603 6.73283L1051.4 251.606C1069.1 260.583 1080 277.173 1080 295.127V784.873C1080 802.827 1069.1 819.417 1051.4 828.394L568.603 1073.27C550.903 1082.24 529.097 1082.24 511.397 1073.27L28.6027 828.394C10.9033 819.417 0 802.827 0 784.873V295.127C0 277.173 10.9033 260.583 28.6027 251.606L511.397 6.73283Z" fill="url(#paint0_linear_1476_1597)" fill-opacity="0.5"/>
<path d="M512.302 8.51652C529.433 -0.172173 550.567 -0.172173 567.698 8.51652L1050.49 253.389C1067.61 262.07 1078 278.02 1078 295.127V784.873C1078 801.98 1067.61 817.93 1050.49 826.611L567.698 1071.48C550.567 1080.17 529.433 1080.17 512.302 1071.48L29.5074 826.611C12.392 817.93 2 801.98 2 784.873V295.127C2 278.02 12.392 262.07 29.5074 253.389L512.302 8.51652Z" stroke="url(#paint1_linear_1476_1597)" stroke-width="4"/>
</g>
<defs>
<filter id="filter0_b_1476_1597" x="-25" y="-25" width="1130" height="1130" filterUnits="userSpaceOnUse" color-interpolation-filters="sRGB">
<feFlood flood-opacity="0" result="BackgroundImageFix"/>
<feGaussianBlur in="BackgroundImageFix" stdDeviation="12.5"/>
<feComposite in2="SourceAlpha" operator="in" result="effect1_backgroundBlur_1476_1597"/>
<feBlend mode="normal" in="SourceGraphic" in2="effect1_backgroundBlur_1476_1597" result="shape"/>
</filter>
<linearGradient id="paint0_linear_1476_1597" x1="57" y1="855" x2="60" y2="217.5" gradientUnits="userSpaceOnUse">
<stop stop-color="#E06B00"/>
<stop offset="0.5" stop-color="#C03AFF"/>
<stop offset="1" stop-color="#80F7FF"/>
</linearGradient>
<linearGradient id="paint1_linear_1476_1597" x1="57" y1="855" x2="60" y2="217.5" gradientUnits="userSpaceOnUse">
<stop stop-color="#E06B00"/>
<stop offset="0.5" stop-color="#C03AFF"/>
<stop offset="1" stop-color="#80F7FF"/>
</linearGradient>
</defs>
</svg>
