<svg width="213" height="46" viewBox="0 0 213 46" fill="none" xmlns="http://www.w3.org/2000/svg">
<path d="M32.5 16.5959L43.812 40L21.188 40L32.5 16.5959Z" stroke="#00C3D0" stroke-width="4"/>
<path d="M51 29.3996L40.1864 7L61.8136 7L51 29.3996Z" stroke="white" stroke-width="4"/>
<path d="M14 29.3996L3.18638 7L24.8136 7L14 29.3996Z" stroke="white" stroke-width="4"/>
<path d="M77.392 23.22L78.472 13.032L82.9 10.62H92.008L95.932 13.032L95.428 17.82H90.388L90.676 14.94H83.296L82.648 20.952H90.892L94.816 23.364L93.736 33.768L89.308 36.18H79.84L75.916 33.768L76.42 28.98H81.46L81.172 31.86H88.912L89.56 25.632H81.316L77.392 23.22ZM113.942 10.8L120.314 36H115.346L113.978 30.564H104.546L102.098 36H97.1298L108.758 10.8H113.942ZM110.666 17.136L106.526 26.244H112.898L110.738 17.136H110.666ZM145.112 36L146.84 19.368H146.768L139.352 36H134.564L130.604 19.152H130.532L128.768 36H123.908L126.536 10.8H133.232L137.624 29.34H137.696L145.94 10.8H152.6L149.972 36H145.112ZM170.368 10.8L176.74 36H171.772L170.404 30.564H160.972L158.524 36H153.556L165.184 10.8H170.368ZM167.092 17.136L162.952 26.244H169.324L167.164 17.136H167.092ZM180.333 36L182.961 10.8H188.001L185.373 36H180.333ZM205.77 10.8L212.142 36H207.174L205.806 30.564H196.374L193.926 36H188.958L200.586 10.8H205.77ZM202.494 17.136L198.354 26.244H204.726L202.566 17.136H202.494Z" fill="white"/>
</svg>
