<svg width="34" height="28" viewBox="0 0 34 28" fill="none" xmlns="http://www.w3.org/2000/svg">
<path id="Refresh_Bt" d="M32.0648 2.4087V10.8809M32.0648 10.8809H23.5926M32.0648 10.8809L25.513 4.72444C23.9954 3.20609 22.1179 2.09693 20.0557 1.50044C17.9935 0.903947 15.8138 0.839572 13.72 1.31332C11.6262 1.78707 9.68657 2.7835 8.08203 4.20964C6.47748 5.63577 5.26035 7.44513 4.54421 9.46889M1 25.0013V16.5291M1 16.5291H9.47223M1 16.5291L7.55185 22.6856C9.06944 24.2039 10.9469 25.3131 13.0091 25.9096C15.0713 26.5061 17.251 26.5704 19.3448 26.0967C21.4386 25.6229 23.3783 24.6265 24.9828 23.2004C26.5873 21.7742 27.8045 19.9649 28.5206 17.9411" stroke="white" stroke-width="2" stroke-linecap="round" stroke-linejoin="round"/>
</svg>
