<svg width="45" height="37" viewBox="0 0 45 37" fill="none" xmlns="http://www.w3.org/2000/svg">
<path d="M43.789 2.94035V14.6101M43.789 14.6101H32.1193M43.789 14.6101L34.7644 6.13008C32.6741 4.0387 30.088 2.51092 27.2475 1.68931C24.4071 0.867695 21.4047 0.779025 18.5207 1.43157C15.6367 2.08412 12.965 3.45661 10.7549 5.42099C8.54474 7.38536 6.86826 9.87759 5.88184 12.6651M1 34.0596V22.3899M1 22.3899H12.6697M1 22.3899L10.0246 30.8699C12.1149 32.9613 14.701 34.4891 17.5415 35.3107C20.382 36.1323 23.3843 36.221 26.2683 35.5684C29.1523 34.9159 31.824 33.5434 34.0342 31.579C36.2443 29.6146 37.9208 27.1224 38.9072 24.3349" stroke="#1B170F" stroke-width="2" stroke-linecap="round" stroke-linejoin="round"/>
</svg>
