<svg width="49" height="49" viewBox="0 0 49 49" fill="none" xmlns="http://www.w3.org/2000/svg">
<circle cx="24.5" cy="24.5" r="23.5" fill="#E06B00" stroke="#A5560F" stroke-width="2"/>
<path d="M23.4552 6.04404C17.2805 6.49912 11.7304 10.2557 8.91068 15.8594C8.04514 17.5815 7.50976 19.2501 7.135 21.3827L6.93869 22.507L5.50208 22.5516C4.70793 22.5784 4.03871 22.623 4.00301 22.6587C3.96732 22.6944 4.25286 23.2744 4.63655 23.9526C6.22485 26.7901 8.53591 30.8144 8.63406 30.9125C8.74114 31.0285 9.77621 29.3153 12.2836 24.8716C13.7113 22.3375 13.7291 22.5784 12.0784 22.5606C10.7667 22.5516 10.6061 22.4624 10.6864 21.8289C10.7221 21.5969 10.8827 20.9455 11.0433 20.3833C11.8464 17.6707 12.935 15.8058 14.8445 13.8963C16.1026 12.6382 17.2091 11.844 18.726 11.0945C22.2595 9.34556 25.8644 9.09572 29.5764 10.3271C31.7269 11.0409 33.101 11.9154 35.0373 13.8071C36.5899 15.3151 37.0717 15.9218 37.7231 17.1978C38.6333 18.9735 39.1062 20.4726 39.3025 22.1144C39.4363 23.2833 39.365 25.8175 39.1687 26.8168C38.8653 28.3338 37.9908 30.4396 37.0985 31.8137C36.5364 32.6793 34.377 34.9368 33.4044 35.6863C32.7352 36.1949 30.4687 37.3371 29.4604 37.6672C27.9256 38.1848 25.918 38.39 23.7943 38.2472C21.0817 38.0688 19.306 37.4352 16.638 35.6685L15.2639 34.7673L15.0497 34.9725C14.4608 35.5168 12.8636 37.3817 12.935 37.4442C12.9796 37.4799 13.2562 37.694 13.5507 37.9171C16.8076 40.3531 20.0466 41.6201 23.7854 41.9146C24.7937 41.9949 25.2844 41.986 26.5069 41.87C28.2826 41.7005 29.1124 41.5309 30.781 40.9866C33.5025 40.0943 35.6798 38.7291 37.7945 36.5876C40.5785 33.7679 42.14 30.7162 42.8717 26.6562C43.0412 25.755 43.0412 22.1233 42.8806 21.2132C42.7111 20.2941 42.3631 18.911 42.0865 18.099C41.56 16.5375 40.4 14.396 39.3025 12.9594C38.6957 12.1563 37.0271 10.4699 36.2151 9.83633C33.7613 7.91788 30.6115 6.51696 27.9167 6.1422C26.9976 6.00835 24.5795 5.95481 23.4552 6.04404Z" fill="white"/>
<path d="M24.7044 12.8255C23.8746 12.8612 23.1786 12.8969 23.1786 12.9058C23.1697 12.9058 23.134 13.4233 23.0983 14.039C23.0358 15.1365 23.0269 15.1633 22.7949 15.2525C21.6349 15.7165 21.0192 16.1002 20.3321 16.7873C19.2971 17.8224 19.1008 18.2507 19.0561 19.6337C19.0026 20.99 19.1543 21.5968 19.7521 22.4445C20.698 23.7919 21.6171 24.3808 24.0798 25.2285C26.2124 25.9691 26.4444 26.1119 26.4444 26.7454C26.4444 27.5574 25.793 28.1731 24.9364 28.1731C24.285 28.1731 23.8121 27.9054 23.4998 27.37C23.366 27.138 23.1786 26.9506 23.0537 26.9149C22.6878 26.8079 19.6272 26.8257 19.3238 26.9328C19.1721 26.9863 19.0294 27.0845 19.0026 27.1559C18.9402 27.3165 19.0651 27.9054 19.3149 28.646C19.7878 30.0558 21.3761 31.7334 22.6254 32.1527C22.8574 32.2241 23.0804 32.3401 23.1161 32.3937C23.1607 32.4561 23.2054 32.9647 23.2321 33.5269L23.2767 34.553L25.0881 34.5798L26.8906 34.5977V33.4912V32.3847L27.6847 31.9207C29.4782 30.9035 30.3973 29.7881 30.8256 28.1017C31.2539 26.4242 30.8167 24.5682 29.737 23.4617C28.8804 22.5873 27.8632 22.0251 25.909 21.347C24.285 20.7848 23.5712 20.419 23.4552 20.1067C23.3838 19.8925 23.4017 19.8301 23.5801 19.6873C24.2761 19.1251 25.9269 19.3304 26.4533 20.0531C26.6496 20.3208 26.6943 20.3387 27.069 20.294C27.5063 20.2405 29.8976 19.491 30.3259 19.2679C30.7096 19.0805 30.7364 19.0002 30.5579 18.5362C30.0761 17.2781 28.8626 16.127 27.3099 15.4667L26.7121 15.2168V13.9765V12.7362L26.4712 12.7541C26.3284 12.763 25.5432 12.7987 24.7044 12.8255Z" fill="white"/>
</svg>
